<mxfile host="app.diagrams.net" modified="2023-01-16T08:11:06.252Z" agent="5.0 (X11)" version="20.7.4" etag="sKQRoqqVmfrEqYAHJky2" type="github">
  <diagram id="q-746W3u899WgqtwJKMJ" name="第 1 页">
    <mxGraphModel dx="602" dy="351" grid="0" gridSize="10" guides="1" tooltips="1" connect="1" arrows="1" fold="1" page="1" pageScale="1" pageWidth="850" pageHeight="1100" math="0" shadow="0">
      <root>
        <mxCell id="0" />
        <mxCell id="1" parent="0" />
        <mxCell id="vTXIDOhRVQIvOe1bJ5i0-1" value="" style="rounded=0;whiteSpace=wrap;html=1;" vertex="1" parent="1">
          <mxGeometry x="485" y="321" width="136" height="158" as="geometry" />
        </mxCell>
        <mxCell id="vTXIDOhRVQIvOe1bJ5i0-2" value="" style="rounded=0;whiteSpace=wrap;html=1;" vertex="1" parent="1">
          <mxGeometry x="54" y="274" width="391" height="233" as="geometry" />
        </mxCell>
        <mxCell id="vTXIDOhRVQIvOe1bJ5i0-5" value="" style="rounded=0;whiteSpace=wrap;html=1;" vertex="1" parent="1">
          <mxGeometry x="196" y="304" width="249" height="178" as="geometry" />
        </mxCell>
        <mxCell id="vTXIDOhRVQIvOe1bJ5i0-3" value="" style="rounded=1;whiteSpace=wrap;html=1;" vertex="1" parent="1">
          <mxGeometry x="434" y="376.5" width="20" height="20" as="geometry" />
        </mxCell>
        <mxCell id="vTXIDOhRVQIvOe1bJ5i0-4" value="" style="rounded=1;whiteSpace=wrap;html=1;" vertex="1" parent="1">
          <mxGeometry x="475" y="376.5" width="20" height="20" as="geometry" />
        </mxCell>
        <mxCell id="vTXIDOhRVQIvOe1bJ5i0-6" value="" style="rounded=1;whiteSpace=wrap;html=1;" vertex="1" parent="1">
          <mxGeometry x="182" y="376.5" width="20" height="20" as="geometry" />
        </mxCell>
        <mxCell id="vTXIDOhRVQIvOe1bJ5i0-7" value="" style="rounded=1;whiteSpace=wrap;html=1;" vertex="1" parent="1">
          <mxGeometry x="104" y="376.5" width="20" height="20" as="geometry" />
        </mxCell>
        <mxCell id="vTXIDOhRVQIvOe1bJ5i0-8" value="&lt;b&gt;VPP(vRouter)&lt;/b&gt;" style="text;html=1;strokeColor=default;fillColor=none;align=center;verticalAlign=middle;whiteSpace=wrap;rounded=0;" vertex="1" parent="1">
          <mxGeometry x="198" y="321" width="98" height="26" as="geometry" />
        </mxCell>
        <mxCell id="vTXIDOhRVQIvOe1bJ5i0-9" value="&lt;b&gt;Host&lt;/b&gt;" style="text;html=1;strokeColor=default;fillColor=none;align=center;verticalAlign=middle;whiteSpace=wrap;rounded=0;" vertex="1" parent="1">
          <mxGeometry x="61" y="281" width="60" height="30" as="geometry" />
        </mxCell>
        <mxCell id="vTXIDOhRVQIvOe1bJ5i0-10" value="&lt;b&gt;Server&lt;/b&gt;" style="text;html=1;strokeColor=default;fillColor=none;align=center;verticalAlign=middle;whiteSpace=wrap;rounded=0;" vertex="1" parent="1">
          <mxGeometry x="497" y="327" width="57" height="26" as="geometry" />
        </mxCell>
        <mxCell id="vTXIDOhRVQIvOe1bJ5i0-11" value="&lt;div align=&quot;left&quot;&gt;host-interface&lt;/div&gt;&lt;div align=&quot;left&quot;&gt;vpp1host&lt;br&gt;&lt;/div&gt;&lt;div align=&quot;left&quot;&gt;10.10.1.2/24&lt;/div&gt;" style="text;html=1;strokeColor=default;fillColor=none;align=left;verticalAlign=middle;whiteSpace=wrap;rounded=0;" vertex="1" parent="1">
          <mxGeometry x="66.5" y="400" width="95" height="55" as="geometry" />
        </mxCell>
        <mxCell id="vTXIDOhRVQIvOe1bJ5i0-12" value="&lt;div align=&quot;left&quot;&gt;host-interface&lt;/div&gt;&lt;div align=&quot;left&quot;&gt;host-vpp1out&lt;br&gt;&lt;/div&gt;&lt;div align=&quot;left&quot;&gt;10.10.1.1/24&lt;/div&gt;" style="text;html=1;strokeColor=default;fillColor=none;align=left;verticalAlign=middle;whiteSpace=wrap;rounded=0;" vertex="1" parent="1">
          <mxGeometry x="202" y="400" width="95" height="55" as="geometry" />
        </mxCell>
        <mxCell id="vTXIDOhRVQIvOe1bJ5i0-13" value="physical-interface&lt;div align=&quot;left&quot;&gt;GigabitEthernet3/0/0&lt;br&gt;&lt;/div&gt;&lt;div align=&quot;left&quot;&gt;10.10.2.1/24&lt;br&gt;&lt;/div&gt;" style="text;html=1;strokeColor=default;fillColor=none;align=left;verticalAlign=middle;whiteSpace=wrap;rounded=0;" vertex="1" parent="1">
          <mxGeometry x="304" y="400" width="136" height="55" as="geometry" />
        </mxCell>
        <mxCell id="vTXIDOhRVQIvOe1bJ5i0-14" value="&lt;div align=&quot;left&quot;&gt;physical-interface&lt;/div&gt;&lt;div align=&quot;left&quot;&gt;eno1&lt;br&gt;&lt;/div&gt;&lt;div align=&quot;left&quot;&gt;10.10.2.2/24&lt;br&gt;&lt;/div&gt;" style="text;html=1;strokeColor=default;fillColor=none;align=left;verticalAlign=middle;whiteSpace=wrap;rounded=0;" vertex="1" parent="1">
          <mxGeometry x="488" y="400" width="117" height="55" as="geometry" />
        </mxCell>
      </root>
    </mxGraphModel>
  </diagram>
</mxfile>
